<svg width="47" height="47" viewBox="0 0 47 47" fill="none" xmlns="http://www.w3.org/2000/svg">
<path d="M13.7087 21.5417C12.5514 21.5417 11.4054 21.3137 10.3363 20.8709C9.26708 20.428 8.2956 19.7789 7.47728 18.9606C6.65896 18.1422 6.00984 17.1708 5.56697 16.1016C5.1241 15.0324 4.89616 13.8865 4.89616 12.7292C4.89616 11.5719 5.1241 10.426 5.56697 9.35679C6.00984 8.28761 6.65896 7.31612 7.47728 6.49781C8.2956 5.67949 9.26708 5.03037 10.3363 4.5875C11.4054 4.14463 12.5514 3.91669 13.7087 3.91669C16.0459 3.91669 18.2874 4.84514 19.94 6.49781C21.5927 8.15047 22.5212 10.392 22.5212 12.7292C22.5212 15.0664 21.5927 17.3079 19.94 18.9606C18.2874 20.6132 16.0459 21.5417 13.7087 21.5417ZM34.2712 29.375C32.1936 29.375 30.2012 28.5497 28.7322 27.0807C27.2631 25.6117 26.4378 23.6192 26.4378 21.5417C26.4378 19.4642 27.2631 17.4717 28.7322 16.0027C30.2012 14.5336 32.1936 13.7084 34.2712 13.7084C36.3487 13.7084 38.3411 14.5336 39.8102 16.0027C41.2792 17.4717 42.1045 19.4642 42.1045 21.5417C42.1045 23.6192 41.2792 25.6117 39.8102 27.0807C38.3411 28.5497 36.3487 29.375 34.2712 29.375ZM34.2712 31.3334C36.6084 31.3334 38.8499 32.2618 40.5025 33.9145C42.1552 35.5671 43.0837 37.8086 43.0837 40.1459V41.125H25.4587V40.1459C25.4587 37.8086 26.3871 35.5671 28.0398 33.9145C29.6924 32.2618 31.9339 31.3334 34.2712 31.3334ZM13.7087 23.5C14.9945 23.5 16.2678 23.7533 17.4558 24.2454C18.6437 24.7374 19.7232 25.4587 20.6324 26.3679C21.5417 27.2772 22.2629 28.3566 22.755 29.5446C23.2471 30.7326 23.5003 32.0058 23.5003 33.2917V41.125H3.91699V33.2917C3.91699 30.6948 4.94861 28.2042 6.7849 26.3679C8.6212 24.5316 11.1117 23.5 13.7087 23.5Z" fill="#003366"/>
</svg>
