<svg width="155" height="84" viewBox="0 0 155 84" fill="none" xmlns="http://www.w3.org/2000/svg">
<g id="Group 41">
<g id="Group 37">
<path id="Union" fill-rule="evenodd" clip-rule="evenodd" d="M140.855 75.3251C140.855 76.8069 140.547 78.1541 139.931 79.3665C139.316 80.5789 138.45 81.5412 137.333 82.2532C136.217 82.9653 134.918 83.3213 133.436 83.3213H126.335V80.4057H133.436C134.379 80.4057 135.178 80.1844 135.832 79.7418C136.506 79.2799 137.025 78.6641 137.391 77.8943C137.757 77.1245 137.94 76.2681 137.94 75.3251C137.94 74.3821 137.757 73.5353 137.391 72.7847C137.025 72.0342 136.506 71.4376 135.832 70.9949C135.178 70.5331 134.379 70.3021 133.436 70.3021H124.978V83.3213H122.034V67.3865H133.436C134.918 67.3865 136.217 67.7425 137.333 68.4546C138.45 69.1667 139.316 70.1193 139.931 71.3125C140.547 72.5057 140.855 73.8432 140.855 75.3251ZM117.872 83.3213H115.014V67.4442H117.872V83.3213ZM95.2189 74.6611H111.096V71.7744H95.2189V74.6611ZM93.8321 83.3213H89.935L82.314 75.6715L77.9261 78.8469V83.3213H75.0394V67.4442H77.9261V75.5271L89.2711 67.4442H93.6878L84.5368 74.0549L93.8321 83.3213ZM70.9173 79.3665C71.5331 78.1541 71.841 76.8165 71.841 75.3539C71.841 73.8913 71.5331 72.5634 70.9173 71.3702C70.3207 70.177 69.4739 69.2244 68.377 68.5123C67.28 67.8003 66.0002 67.4442 64.5376 67.4442H59.5146C58.052 67.4442 56.7626 67.8003 55.6464 68.5123C54.5494 69.2244 53.693 70.177 53.0772 71.3702C52.4806 72.5634 52.1823 73.8913 52.1823 75.3539C52.1823 76.8165 52.4806 78.1541 53.0772 79.3665C53.693 80.5597 54.5494 81.5219 55.6464 82.2532C56.7626 82.9653 58.052 83.3213 59.5146 83.3213H64.5376C66.0002 83.3213 67.28 82.9653 68.377 82.2532C69.4739 81.5219 70.3207 80.5597 70.9173 79.3665ZM68.4347 72.8136C68.7811 73.5834 68.9543 74.4302 68.9543 75.3539C68.9543 76.2777 68.7811 77.1245 68.4347 77.8943C68.0883 78.6641 67.5783 79.2799 66.9047 79.7418C66.2504 80.2036 65.4613 80.4346 64.5376 80.4346H59.5146C58.5909 80.4346 57.7922 80.2036 57.1186 79.7418C56.4643 79.2799 55.9543 78.6641 55.5887 77.8943C55.2423 77.1245 55.0691 76.2777 55.0691 75.3539C55.0691 74.4302 55.2423 73.5834 55.5887 72.8136C55.9543 72.0438 56.4643 71.4376 57.1186 70.9949C57.7922 70.533 58.5909 70.3021 59.5146 70.3021H64.5376C65.4613 70.3021 66.2504 70.533 66.9047 70.9949C67.5783 71.4376 68.0883 72.0438 68.4347 72.8136ZM49.9366 75.3539C49.9366 76.8165 49.6287 78.1541 49.0128 79.3665C48.4162 80.5597 47.5695 81.5219 46.4725 82.2532C45.3755 82.9653 44.0957 83.3213 42.6331 83.3213H37.6102C36.1476 83.3213 34.8581 82.9653 33.7419 82.2532C32.645 81.5219 31.7886 80.5597 31.1727 79.3665C30.5761 78.1541 30.2778 76.8165 30.2778 75.3539C30.2778 73.8913 30.5761 72.5634 31.1727 71.3702C31.7886 70.177 32.645 69.2244 33.7419 68.5123C34.8581 67.8003 36.1476 67.4442 37.6102 67.4442H42.6331C44.0957 67.4442 45.3755 67.8003 46.4725 68.5123C47.5695 69.2244 48.4162 70.177 49.0128 71.3702C49.6287 72.5634 49.9366 73.8913 49.9366 75.3539ZM47.0498 75.3539C47.0498 74.4302 46.8766 73.5834 46.5302 72.8136C46.1838 72.0438 45.6738 71.4376 45.0002 70.9949C44.3459 70.533 43.5569 70.3021 42.6331 70.3021H37.6102C36.6864 70.3021 35.8878 70.533 35.2142 70.9949C34.5598 71.4376 34.0499 72.0438 33.6842 72.8136C33.3378 73.5834 33.1646 74.4302 33.1646 75.3539C33.1646 76.2777 33.3378 77.1245 33.6842 77.8943C34.0499 78.6641 34.5598 79.2799 35.2142 79.7418C35.8878 80.2036 36.6864 80.4346 37.6102 80.4346H42.6331C43.5569 80.4346 44.3459 80.2036 45.0002 79.7418C45.6738 79.2799 46.1838 78.6641 46.5302 77.8943C46.8766 77.1245 47.0498 76.2777 47.0498 75.3539ZM13.8369 83.3213H29.0212V80.4346H16.7237V67.4442H13.8369V83.3213Z" fill="white"/>
</g>
<path id="Union_2" fill-rule="evenodd" clip-rule="evenodd" d="M72.7092 24.0402C72.1853 20.7373 71.1831 17.6286 69.7029 14.7142C67.4833 10.2749 64.3328 6.6948 60.2516 3.97391C56.1704 1.32463 51.409 -1.14441e-05 45.9674 -1.14441e-05H27.2797C21.8381 -1.14441e-05 17.0409 1.32463 12.8881 3.97391C8.80684 6.6948 5.62062 10.2749 3.32941 14.7142C1.10981 19.2252 0 24.2015 0 29.6433C0 35.0851 1.10981 40.0256 3.32941 44.465C5.62062 48.9043 8.80684 52.4486 12.8881 55.0979C17.0409 57.7472 21.8381 59.0718 27.2797 59.0718H45.9674C51.409 59.0718 56.1704 57.7472 60.2516 55.0979C64.3328 52.4486 67.4833 48.9043 69.7029 44.465C71.511 40.9617 72.6057 37.1462 72.9869 33.0186H81.6442C82.0135 37.1462 83.074 40.9617 84.8256 44.465C87.1168 48.9043 90.303 52.4486 94.3843 55.0979C98.5371 57.7472 103.334 59.0718 108.776 59.0718H127.464C132.905 59.0718 137.667 57.7472 141.748 55.0979C145.829 52.4486 148.979 48.9043 151.199 44.465C153.49 40.0256 154.636 35.0851 154.636 29.6433C154.636 24.2015 153.49 19.2252 151.199 14.7142C148.979 10.2749 145.829 6.6948 141.748 3.97391C137.667 1.32463 132.905 -1.14441e-05 127.464 -1.14441e-05H108.776C103.334 -1.14441e-05 98.5371 1.32463 94.3843 3.97391C90.303 6.6948 87.1168 10.2749 84.8256 14.7142C83.3916 17.6286 82.4208 20.7373 81.9133 24.0402H72.7092ZM62.3996 29.6433C62.3996 33.0802 61.7552 36.2307 60.4664 39.0948C59.1776 41.9589 57.2802 44.2144 54.7742 45.8612C52.3398 47.5797 49.4042 48.4389 45.9674 48.4389H27.2797C23.8429 48.4389 20.8715 47.5797 18.3655 45.8612C15.9311 44.2144 14.0337 41.9589 12.6733 39.0948C11.3844 36.2307 10.74 33.0802 10.74 29.6433C10.74 26.2064 11.3844 23.0559 12.6733 20.1918C14.0337 17.3277 15.9311 15.0365 18.3655 13.318C20.8715 11.5995 23.8429 10.7403 27.2797 10.7403H45.9674C49.4042 10.7403 52.3398 11.5995 54.7742 13.318C57.2802 15.0365 59.1776 17.3277 60.4664 20.1918C61.7552 23.0559 62.3996 26.2064 62.3996 29.6433ZM141.963 39.0948C143.251 36.2307 143.896 33.0802 143.896 29.6433C143.896 26.2064 143.251 23.0559 141.963 20.1918C140.674 17.3277 138.776 15.0365 136.27 13.318C133.836 11.5995 130.9 10.7403 127.464 10.7403H108.776C105.339 10.7403 102.368 11.5995 99.8617 13.318C97.4273 15.0365 95.5299 17.3277 94.1695 20.1918C92.8806 23.0559 92.2362 26.2064 92.2362 29.6433C92.2362 33.0802 92.8806 36.2307 94.1695 39.0948C95.5299 41.9589 97.4273 44.2144 99.8617 45.8612C102.368 47.5797 105.339 48.4389 108.776 48.4389H127.464C130.9 48.4389 133.836 47.5797 136.27 45.8612C138.776 44.2144 140.674 41.9589 141.963 39.0948ZM111.567 43.2886C105.096 43.2886 99.8505 38.0426 99.8505 31.5714V27.2901C99.8505 20.8189 105.096 15.5729 111.567 15.5729H124.411C130.882 15.5729 136.128 20.8189 136.128 27.2901V31.5714C136.128 38.0426 130.882 43.2886 124.411 43.2886H111.567ZM30.2252 43.2886C23.7541 43.2886 18.5083 38.0426 18.5083 31.5714V27.2901C18.5083 20.8189 23.7541 15.5729 30.2252 15.5729H43.0687C49.5397 15.5729 54.7856 20.8189 54.7856 27.2901V31.5714C54.7856 38.0426 49.5397 43.2886 43.0687 43.2886H30.2252Z" fill="white"/>
</g>
</svg>
