<svg width="50" height="50" viewBox="0 0 50 50" fill="none" xmlns="http://www.w3.org/2000/svg">
<path d="M29.166 7.2915C37.0223 7.2915 40.9514 7.2915 43.391 9.88525C45.8306 12.479 45.8327 16.6519 45.8327 24.9998C45.8327 33.3478 45.8327 37.5207 43.391 40.1144C40.9493 42.7082 37.0223 42.7082 29.166 42.7082H20.8327C12.9764 42.7082 9.04727 42.7082 6.60768 40.1144C4.1681 37.5207 4.16602 33.3478 4.16602 24.9998C4.16602 16.6519 4.16602 12.479 6.60768 9.88525C9.04935 7.2915 12.9764 7.2915 20.8327 7.2915H29.166Z" stroke="#003366" stroke-width="3.125" stroke-linecap="round" stroke-linejoin="round"/>
<path d="M10.416 32.2916C13.7681 27.8395 21.5702 27.5958 24.9993 32.2916M31.2493 19.7916H39.5827M31.2493 28.1249H35.416M21.3514 21.3541C21.3514 22.321 20.9673 23.2484 20.2836 23.9321C19.5999 24.6158 18.6725 24.9999 17.7056 24.9999C16.7387 24.9999 15.8113 24.6158 15.1276 23.9321C14.4439 23.2484 14.0598 22.321 14.0598 21.3541C14.0598 20.3872 14.4439 19.4598 15.1276 18.7761C15.8113 18.0924 16.7387 17.7083 17.7056 17.7083C18.6725 17.7083 19.5999 18.0924 20.2836 18.7761C20.9673 19.4598 21.3514 20.3872 21.3514 21.3541Z" stroke="#003366" stroke-width="3.125" stroke-linecap="round" stroke-linejoin="round"/>
</svg>
