<svg width="28" height="28" viewBox="0 0 28 28" fill="none" xmlns="http://www.w3.org/2000/svg">
<g id="right-from-bracket-solid 1">
<path id="Vector" d="M20.6664 5.79141L27.382 12.507C27.7758 12.9008 28 13.4422 28 14C28 14.5578 27.7758 15.0992 27.382 15.493L20.6664 22.2086C20.3164 22.5586 19.8461 22.75 19.3539 22.75C18.3312 22.75 17.5 21.9188 17.5 20.8961V17.5H10.5C9.53203 17.5 8.75 16.718 8.75 15.75V12.25C8.75 11.282 9.53203 10.5 10.5 10.5H17.5V7.10391C17.5 6.08125 18.3312 5.25 19.3539 5.25C19.8461 5.25 20.3164 5.44688 20.6664 5.79141ZM8.75 5.25H5.25C4.28203 5.25 3.5 6.03203 3.5 7V21C3.5 21.968 4.28203 22.75 5.25 22.75H8.75C9.71797 22.75 10.5 23.532 10.5 24.5C10.5 25.468 9.71797 26.25 8.75 26.25H5.25C2.35156 26.25 0 23.8984 0 21V7C0 4.10156 2.35156 1.75 5.25 1.75H8.75C9.71797 1.75 10.5 2.53203 10.5 3.5C10.5 4.46797 9.71797 5.25 8.75 5.25Z" fill="#003366"/>
</g>
</svg>
