<svg width="47" height="47" viewBox="0 0 47 47" fill="none" xmlns="http://www.w3.org/2000/svg">
<path d="M13.7087 21.5417C12.5514 21.5417 11.4054 21.3138 10.3363 20.8709C9.26708 20.4281 8.2956 19.7789 7.47728 18.9606C6.65896 18.1423 6.00984 17.1708 5.56697 16.1016C5.1241 15.0325 4.89616 13.8865 4.89616 12.7292C4.89616 11.572 5.1241 10.426 5.56697 9.35685C6.00984 8.28767 6.65896 7.31619 7.47728 6.49787C8.2956 5.67955 9.26708 5.03043 10.3363 4.58756C11.4054 4.14469 12.5514 3.91675 13.7087 3.91675C16.0459 3.91675 18.2874 4.84521 19.94 6.49787C21.5927 8.15053 22.5212 10.392 22.5212 12.7292C22.5212 15.0665 21.5927 17.308 19.94 18.9606C18.2874 20.6133 16.0459 21.5417 13.7087 21.5417ZM34.2712 29.3751C32.1936 29.3751 30.2012 28.5498 28.7322 27.0808C27.2631 25.6117 26.4378 23.6193 26.4378 21.5417C26.4378 19.4642 27.2631 17.4718 28.7322 16.0027C30.2012 14.5337 32.1936 13.7084 34.2712 13.7084C36.3487 13.7084 38.3411 14.5337 39.8102 16.0027C41.2792 17.4718 42.1045 19.4642 42.1045 21.5417C42.1045 23.6193 41.2792 25.6117 39.8102 27.0808C38.3411 28.5498 36.3487 29.3751 34.2712 29.3751ZM34.2712 31.3334C36.6084 31.3334 38.8499 32.2619 40.5025 33.9145C42.1552 35.5672 43.0837 37.8087 43.0837 40.1459V41.1251H25.4587V40.1459C25.4587 37.8087 26.3871 35.5672 28.0398 33.9145C29.6924 32.2619 31.9339 31.3334 34.2712 31.3334ZM13.7087 23.5001C14.9945 23.5001 16.2678 23.7533 17.4558 24.2454C18.6437 24.7375 19.7232 25.4588 20.6324 26.368C21.5417 27.2772 22.2629 28.3567 22.755 29.5446C23.2471 30.7326 23.5003 32.0059 23.5003 33.2917V41.1251H3.91699V33.2917C3.91699 30.6948 4.94861 28.2043 6.7849 26.368C8.6212 24.5317 11.1117 23.5001 13.7087 23.5001Z" fill="#003366"/>
</svg>
