<svg width="120" height="108" viewBox="0 0 120 108" fill="none" xmlns="http://www.w3.org/2000/svg">
<rect width="120" height="108" rx="12" fill="#F19953"/>
<path d="M59.2274 11.0756C59.7394 10.9748 60.2679 10.9748 60.7799 11.0756L93.8124 17.795C95.6622 18.1646 97 19.8276 97 21.7427C97 23.6577 95.6622 25.3207 93.8124 25.6903L81.1444 28.2773V37.8692C81.1444 49.7458 71.6806 59.3713 60.0037 59.3713C48.3267 59.3713 38.8629 49.7458 38.8629 37.8692V28.2773L30.9351 26.6646V37.6004L33.5282 50.7705C33.6768 51.56 33.4786 52.3831 32.9831 53.0047C32.4877 53.6262 31.7279 53.9958 30.9351 53.9958H25.6499C24.8572 53.9958 24.1139 53.643 23.6019 53.0047C23.0899 52.3663 22.8917 51.56 23.0569 50.7705L25.6499 37.6004V25.5391C24.0809 24.9848 23.0074 23.4729 23.0074 21.7427C23.0074 19.8276 24.3452 18.1646 26.195 17.795L59.2274 11.0756ZM41.489 66.0403C43.2232 65.4692 45.0895 66.1075 46.3448 67.4682L58.0713 80.1511C59.1118 81.2766 60.879 81.2766 61.9196 80.1511L73.6461 67.4682C74.9013 66.1075 76.7676 65.4692 78.5018 66.0403C89.2374 69.5512 97 79.7647 97 91.8429C97 94.6986 94.7208 97 91.9295 97H28.0778C25.2866 97 23.0074 94.6818 23.0074 91.8429C23.0074 79.7647 30.77 69.5512 41.489 66.0403Z" fill="#003366"/>
</svg>
