<svg width="120" height="108" viewBox="0 0 120 108" fill="none" xmlns="http://www.w3.org/2000/svg">
<rect width="120" height="108" rx="12" fill="#F19953"/>
<path d="M43.45 53.9937C49.1256 53.9937 54.5688 51.7289 58.5821 47.6974C62.5954 43.666 64.85 38.1982 64.85 32.4969C64.85 26.7955 62.5954 21.3277 58.5821 17.2963C54.5688 13.2648 49.1256 11 43.45 11C37.7744 11 32.3312 13.2648 28.3179 17.2963C24.3046 21.3277 22.05 26.7955 22.05 32.4969C22.05 38.1982 24.3046 43.666 28.3179 47.6974C32.3312 51.7289 37.7744 53.9937 43.45 53.9937ZM35.8095 62.055C19.3416 62.055 6 75.457 6 91.9995C6 94.7537 8.22359 96.9874 10.9655 96.9874H75.9345C76.2355 96.9874 76.5197 96.9538 76.8206 96.9034C64.0642 87.6497 60.1353 73.2233 59.5836 63.281C56.8919 62.4749 54.0497 62.055 51.1072 62.055H35.8262H35.8095ZM87.437 48.905L67.3745 56.9663C65.8531 57.5877 64.85 59.0656 64.85 60.7115C64.85 71.3423 69.1802 89.0604 87.3869 96.6851C88.3733 97.105 89.4934 97.105 90.4798 96.6851C108.67 89.0604 113 71.3423 113 60.7115C113 59.0656 111.997 57.5877 110.475 56.9663L90.413 48.905C89.46 48.5187 88.39 48.5187 87.437 48.905ZM104.875 63.3986C104.223 71.9133 100.327 82.9977 88.925 88.5398V56.9999L104.875 63.3986Z" fill="#003366"/>
</svg>
