<svg width="52" height="52" viewBox="0 0 52 52" fill="none" xmlns="http://www.w3.org/2000/svg">
<path d="M8.66699 25.9999C8.66699 26.5746 8.89527 27.1257 9.30159 27.532C9.70792 27.9383 10.259 28.1666 10.8337 28.1666H27.2787L22.2953 33.1283C22.0922 33.3297 21.9311 33.5693 21.8211 33.8333C21.7111 34.0974 21.6544 34.3806 21.6544 34.6666C21.6544 34.9526 21.7111 35.2358 21.8211 35.4998C21.9311 35.7639 22.0922 36.0035 22.2953 36.2049C22.4967 36.408 22.7364 36.5692 23.0004 36.6792C23.2644 36.7892 23.5476 36.8458 23.8337 36.8458C24.1197 36.8458 24.4029 36.7892 24.6669 36.6792C24.9309 36.5692 25.1706 36.408 25.372 36.2049L34.0387 27.5383C34.2359 27.3322 34.3905 27.0892 34.4937 26.8233C34.7104 26.2958 34.7104 25.7041 34.4937 25.1766C34.3905 24.9106 34.2359 24.6676 34.0387 24.4616L25.372 15.7949C25.17 15.5929 24.9301 15.4327 24.6662 15.3233C24.4023 15.214 24.1194 15.1577 23.8337 15.1577C23.548 15.1577 23.2651 15.214 23.0011 15.3233C22.7372 15.4327 22.4973 15.5929 22.2953 15.7949C22.0933 15.9969 21.9331 16.2368 21.8237 16.5007C21.7144 16.7647 21.6581 17.0476 21.6581 17.3333C21.6581 17.6189 21.7144 17.9018 21.8237 18.1658C21.9331 18.4297 22.0933 18.6696 22.2953 18.8716L27.2787 23.8333H10.8337C10.259 23.8333 9.70792 24.0615 9.30159 24.4679C8.89527 24.8742 8.66699 25.4253 8.66699 25.9999ZM36.8337 4.33325H15.167C13.4431 4.33325 11.7898 5.01807 10.5708 6.23706C9.35181 7.45604 8.66699 9.10934 8.66699 10.8333V17.3333C8.66699 17.9079 8.89527 18.459 9.30159 18.8653C9.70792 19.2716 10.259 19.4999 10.8337 19.4999C11.4083 19.4999 11.9594 19.2716 12.3657 18.8653C12.7721 18.459 13.0003 17.9079 13.0003 17.3333V10.8333C13.0003 10.2586 13.2286 9.70752 13.6349 9.30119C14.0413 8.89486 14.5924 8.66659 15.167 8.66659H36.8337C37.4083 8.66659 37.9594 8.89486 38.3657 9.30119C38.7721 9.70752 39.0003 10.2586 39.0003 10.8333V41.1666C39.0003 41.7412 38.7721 42.2923 38.3657 42.6987C37.9594 43.105 37.4083 43.3333 36.8337 43.3333H15.167C14.5924 43.3333 14.0413 43.105 13.6349 42.6987C13.2286 42.2923 13.0003 41.7412 13.0003 41.1666V34.6666C13.0003 34.092 12.7721 33.5409 12.3657 33.1345C11.9594 32.7282 11.4083 32.4999 10.8337 32.4999C10.259 32.4999 9.70792 32.7282 9.30159 33.1345C8.89527 33.5409 8.66699 34.092 8.66699 34.6666V41.1666C8.66699 42.8905 9.35181 44.5438 10.5708 45.7628C11.7898 46.9818 13.4431 47.6666 15.167 47.6666H36.8337C38.5576 47.6666 40.2109 46.9818 41.4299 45.7628C42.6488 44.5438 43.3337 42.8905 43.3337 41.1666V10.8333C43.3337 9.10934 42.6488 7.45604 41.4299 6.23706C40.2109 5.01807 38.5576 4.33325 36.8337 4.33325Z" fill="#003366"/>
</svg>
