<svg width="2098" height="384" viewBox="0 0 2098 384" fill="none" xmlns="http://www.w3.org/2000/svg">
<path d="M2097.27 131.078C2097.27 155.546 2092.19 177.79 2082.02 197.809C2071.85 217.828 2057.55 233.716 2039.12 245.474C2020.69 257.231 1999.24 263.11 1974.78 263.11H1857.52V214.968H1974.78C1990.35 214.968 2003.53 211.314 2014.34 204.005C2025.46 196.379 2034.04 186.21 2040.08 173.5C2046.11 160.789 2049.13 146.649 2049.13 131.078C2049.13 115.508 2046.11 101.526 2040.08 89.1331C2034.04 76.7403 2025.46 66.8896 2014.34 59.581C2003.53 51.9546 1990.35 48.1414 1974.78 48.1414H1835.12V263.11H1786.5V0H1974.78C1999.24 0 2020.69 5.87865 2039.12 17.636C2057.55 29.3933 2071.85 45.1227 2082.02 64.8241C2092.19 84.5256 2097.27 106.61 2097.27 131.078Z" fill="#05CC00"/>
<path d="M1717.78 263.111H1670.59V0.955078H1717.78V263.111Z" fill="#05CC00"/>
<path d="M1605.91 120.118H1343.75V72.4531H1605.91V120.118Z" fill="#05CC00"/>
<path d="M1320.84 263.111H1256.5L1130.66 136.8L1058.21 189.231V263.111H1010.55V0.955078H1058.21V134.416L1245.53 0.955078H1318.46L1167.36 110.107L1320.84 263.111Z" fill="#05CC00"/>
<path d="M957.749 131.557C957.749 155.707 952.665 177.791 942.497 197.811C932.646 217.512 918.664 233.4 900.552 245.475C882.439 257.233 861.308 263.111 837.158 263.111H754.221C730.071 263.111 708.78 257.233 690.35 245.475C672.237 233.4 658.097 217.512 647.928 197.811C638.078 177.791 633.152 155.707 633.152 131.557C633.152 107.406 638.078 85.4806 647.928 65.7791C658.097 46.0777 672.237 30.3483 690.35 18.591C708.78 6.83373 730.071 0.955078 754.221 0.955078H837.158C861.308 0.955078 882.439 6.83373 900.552 18.591C918.664 30.3483 932.646 46.0777 942.497 65.7791C952.665 85.4806 957.749 107.406 957.749 131.557ZM910.085 131.557C910.085 116.304 907.225 102.322 901.505 89.6115C895.785 76.9009 887.365 66.8913 876.243 59.5827C865.439 51.9564 852.41 48.1432 837.158 48.1432H754.221C738.968 48.1432 725.781 51.9564 714.659 59.5827C703.855 66.8913 695.434 76.9009 689.397 89.6115C683.677 102.322 680.817 116.304 680.817 131.557C680.817 146.809 683.677 160.791 689.397 173.502C695.434 186.212 703.855 196.381 714.659 204.007C725.781 211.633 738.968 215.447 754.221 215.447H837.158C852.41 215.447 865.439 211.633 876.243 204.007C887.365 196.381 895.785 186.212 901.505 173.502C907.225 160.791 910.085 146.809 910.085 131.557Z" fill="#05CC00"/>
<path d="M714.609 123C714.609 94.2812 737.891 71 766.609 71H823.609C852.328 71 875.609 94.2812 875.609 123V142C875.609 170.719 852.328 194 823.609 194H766.609C737.891 194 714.609 170.719 714.609 142V123Z" fill="#05CC00"/>
<path d="M596.066 131.557C596.066 155.707 590.982 177.791 580.813 197.811C570.962 217.512 556.981 233.4 538.868 245.475C520.755 257.233 499.624 263.111 475.474 263.111H392.537C368.387 263.111 347.097 257.233 328.666 245.475C310.554 233.4 296.413 217.512 286.245 197.811C276.394 177.791 271.469 155.707 271.469 131.557C271.469 107.406 276.394 85.4806 286.245 65.7791C296.413 46.0777 310.554 30.3483 328.666 18.591C347.097 6.83373 368.387 0.955078 392.537 0.955078H475.474C499.624 0.955078 520.755 6.83373 538.868 18.591C556.981 30.3483 570.962 46.0777 580.813 65.7791C590.982 85.4806 596.066 107.406 596.066 131.557ZM548.401 131.557C548.401 116.304 545.541 102.322 539.821 89.6115C534.102 76.9009 525.681 66.8913 514.559 59.5827C503.755 51.9564 490.727 48.1432 475.474 48.1432H392.537C377.285 48.1432 364.097 51.9564 352.976 59.5827C342.172 66.8913 333.751 76.9009 327.713 89.6115C321.993 102.322 319.134 116.304 319.134 131.557C319.134 146.809 321.993 160.791 327.713 173.502C333.751 186.212 342.172 196.381 352.976 204.007C364.097 211.633 377.285 215.447 392.537 215.447H475.474C490.727 215.447 503.755 211.633 514.559 204.007C525.681 196.381 534.102 186.212 539.821 173.502C545.541 160.791 548.401 146.809 548.401 131.557Z" fill="#05CC00"/>
<path d="M353.609 123C353.609 94.2812 376.891 71 405.609 71H462.609C491.328 71 514.609 94.2812 514.609 123V142C514.609 170.719 491.328 194 462.609 194H405.609C376.891 194 353.609 170.719 353.609 142V123Z" fill="#05CC00"/>
<path d="M250.717 263.111H0V0.955078H47.6648V215.447H250.717V263.111Z" fill="#05CC00"/>
<path fill-rule="evenodd" clip-rule="evenodd" d="M445.24 325.095C449.606 314.949 461.371 310.264 471.517 314.63C521.152 335.992 652.064 366.121 771.704 314.63C781.85 310.264 793.615 314.949 797.981 325.095C802.348 335.241 797.663 347.005 787.517 351.372C654.358 408.681 511.403 375.344 455.704 351.372C445.558 347.005 440.873 335.241 445.24 325.095Z" fill="#05CC00"/>
</svg>
