<svg width="1868" height="2737" viewBox="0 0 1868 2737" fill="none" xmlns="http://www.w3.org/2000/svg">
<path fill-rule="evenodd" clip-rule="evenodd" d="M2727.45 582.551C2725.24 563.511 2712.62 546.389 2693.39 539.359L1227.94 3.60614C1209.91 -2.98308 1189.73 0.81245 1175.33 13.4987L18.1826 1033.01C2.91882 1046.46 -2.64525 1066.82 2.04831 1085.26C4.25774 1104.3 16.8762 1121.42 36.1062 1128.46L543.589 1313.99C543.738 1314.03 543.887 1314.08 544.035 1314.13L1523.01 1639.25L2303.31 994.09C2303.98 993.54 2304.65 993.008 2305.34 992.494L2711.31 634.807C2726.58 621.359 2732.14 600.999 2727.45 582.551ZM2307.44 1137.61L1581.27 1738.01C1559.84 1755.72 1530.81 1761.16 1504.43 1752.4L591.58 1449.24L642.576 1725.71L215.383 2102.09C200.119 2115.54 194.555 2135.9 199.248 2154.35C201.458 2173.39 214.076 2190.51 233.306 2197.54L1698.76 2733.29C1716.78 2739.88 1736.96 2736.09 1751.36 2723.4L2908.51 1703.89C2923.78 1690.44 2929.34 1670.08 2924.65 1651.64C2922.44 1632.6 2909.82 1615.47 2890.59 1608.44L2358.4 1413.88L2307.44 1137.61ZM148.323 1057.95L546.236 1203.42L507.124 991.382L507.162 991.375C506.92 990.342 506.728 989.301 506.586 988.255C505.152 977.666 508.854 966.584 517.442 958.996L1245.24 315.919C1254.29 307.917 1266.99 305.529 1278.34 309.694L2200.71 648.388C2211.54 652.366 2219.05 661.446 2221.5 671.927C2221.61 672.396 2221.71 672.867 2221.8 673.341C2221.82 673.434 2221.84 673.527 2221.85 673.621L2221.85 673.63C2221.89 673.831 2221.93 674.033 2221.96 674.235C2222 674.505 2222.04 674.776 2222.08 675.047L2222.11 675.04L2261.97 891.098L2581.17 609.863L1221.22 112.678L148.323 1057.95ZM664.727 1845.8L697.134 2021.49C699.215 2032.58 706.903 2042.32 718.236 2046.48L1640.61 2385.18C1651.95 2389.34 1664.65 2386.95 1673.71 2378.95L2401.5 1735.87C2410.49 1727.94 2414.12 1716.17 2412.12 1705.15L2412.09 1704.95L2411.34 1700.92L2411.32 1700.76C2411.3 1700.68 2411.29 1700.6 2411.27 1700.51L2380.46 1533.48L2778.37 1678.95L1705.48 2624.22L345.523 2127.04L664.727 1845.8Z" fill="#05CC00" fill-opacity="0.2"/>
</svg>
