<svg width="173" height="25" viewBox="0 0 173 25" fill="none" xmlns="http://www.w3.org/2000/svg">
<path d="M172.629 12.4255C172.629 14.7449 172.21 16.8535 171.373 18.7512C170.537 20.6489 169.36 22.155 167.842 23.2695C166.325 24.3841 164.56 24.9413 162.546 24.9413H152.895V20.3778H162.546C163.828 20.3778 164.913 20.0314 165.802 19.3386C166.718 18.6156 167.424 17.6517 167.921 16.4468C168.418 15.2419 168.666 13.9015 168.666 12.4255C168.666 10.9495 168.418 9.6241 167.921 8.44933C167.424 7.27455 166.718 6.34076 165.802 5.64795C164.913 4.92501 163.828 4.56354 162.546 4.56354H151.051V24.9413H147.049V0H162.546C164.56 0 166.325 0.557263 167.842 1.67179C169.36 2.78632 170.537 4.27738 171.373 6.14497C172.21 8.01255 172.629 10.1061 172.629 12.4255Z" fill="white"/>
<path d="M141.392 24.9413H137.508V0.090332H141.392V24.9413Z" fill="white"/>
<path d="M132.184 11.3865H110.605V6.86816H132.184V11.3865Z" fill="white"/>
<path d="M108.721 24.9413H103.424L93.0665 12.9676L87.103 17.9378V24.9413H83.1797V0.090332H87.103V12.7417L102.522 0.090332H108.524L96.0874 10.4374L108.721 24.9413Z" fill="white"/>
<path d="M20.6367 24.9413H0V0.090332H3.92333V20.4229H20.6367V24.9413Z" fill="white"/>
<path fill-rule="evenodd" clip-rule="evenodd" d="M49.0629 10.2081C48.8717 8.82005 48.506 7.51363 47.9658 6.28884C47.1558 4.42311 46.0061 2.91848 44.5168 1.77496C43.0274 0.661541 41.2899 0.10483 39.3041 0.10483H32.4844C30.4986 0.10483 28.748 0.661541 27.2325 1.77496C25.7432 2.91848 24.5804 4.42311 23.7443 6.28884C22.9343 8.18467 22.5293 10.2761 22.5293 12.5631C22.5293 14.8502 22.9343 16.9265 23.7443 18.7923C24.5804 20.658 25.7432 22.1476 27.2325 23.261C28.748 24.3744 30.4986 24.9312 32.4844 24.9312H39.3041C41.2899 24.9312 43.0274 24.3744 44.5168 23.261C46.0061 22.1476 47.1558 20.658 47.9658 18.7923C48.6257 17.3199 49.0251 15.7163 49.1642 13.9815H52.3235C52.4583 15.7163 52.8453 17.3199 53.4845 18.7923C54.3206 20.658 55.4834 22.1476 56.9727 23.261C58.4882 24.3744 60.2388 24.9312 62.2246 24.9312H69.0443C71.0301 24.9312 72.7677 24.3744 74.257 23.261C75.7463 22.1476 76.896 20.658 77.706 18.7923C78.5421 16.9265 78.9602 14.8502 78.9602 12.5631C78.9602 10.2761 78.5421 8.18467 77.706 6.28884C76.896 4.42311 75.7463 2.91848 74.257 1.77496C72.7677 0.661541 71.0301 0.10483 69.0443 0.10483H62.2246C60.2388 0.10483 58.4882 0.661541 56.9727 1.77496C55.4834 2.91848 54.3206 4.42311 53.4845 6.28884C52.9612 7.51363 52.607 8.82005 52.4217 10.2081H49.0629ZM45.3006 12.5631C45.3006 14.0076 45.0655 15.3316 44.5952 16.5353C44.1249 17.739 43.4324 18.687 42.5179 19.3791C41.6295 20.1013 40.5583 20.4624 39.3041 20.4624H32.4844C31.2302 20.4624 30.1459 20.1013 29.2314 19.3791C28.343 18.687 27.6506 17.739 27.1541 16.5353C26.6838 15.3316 26.4486 14.0076 26.4486 12.5631C26.4486 11.1187 26.6838 9.79462 27.1541 8.59092C27.6506 7.38721 28.343 6.42425 29.2314 5.70203C30.1459 4.97981 31.2302 4.61871 32.4844 4.61871H39.3041C40.5583 4.61871 41.6295 4.97981 42.5179 5.70203C43.4324 6.42425 44.1249 7.38721 44.5952 8.59092C45.0655 9.79462 45.3006 11.1187 45.3006 12.5631ZM74.3354 16.5353C74.8057 15.3316 75.0409 14.0076 75.0409 12.5631C75.0409 11.1187 74.8057 9.79462 74.3354 8.59092C73.8651 7.38721 73.1727 6.42425 72.2581 5.70203C71.3698 4.97981 70.2985 4.61871 69.0443 4.61871H62.2246C60.9704 4.61871 59.8861 4.97981 58.9716 5.70203C58.0832 6.42425 57.3908 7.38721 56.8943 8.59092C56.424 9.79462 56.1889 11.1187 56.1889 12.5631C56.1889 14.0076 56.424 15.3316 56.8943 16.5353C57.3908 17.739 58.0832 18.687 58.9716 19.3791C59.8861 20.1013 60.9704 20.4624 62.2246 20.4624H69.0443C70.2985 20.4624 71.3698 20.1013 72.2581 19.3791C73.1727 18.687 73.8651 17.739 74.3354 16.5353ZM63.2433 18.2979C60.8818 18.2979 58.9675 16.0931 58.9675 13.3734V11.5741C58.9675 8.85444 60.8818 6.6497 63.2433 6.6497H67.9302C70.2917 6.6497 72.2061 8.85444 72.2061 11.5741V13.3734C72.2061 16.0931 70.2917 18.2979 67.9302 18.2979H63.2433ZM33.5593 18.2979C31.1978 18.2979 29.2835 16.0931 29.2835 13.3734V11.5741C29.2835 8.85444 31.1978 6.6497 33.5593 6.6497H38.2462C40.6077 6.6497 42.5221 8.85444 42.5221 11.5741V13.3734C42.5221 16.0931 40.6077 18.2979 38.2462 18.2979H33.5593Z" fill="white"/>
</svg>
