<svg width="312" height="250" viewBox="0 0 312 250" fill="none" xmlns="http://www.w3.org/2000/svg">
<path fill-rule="evenodd" clip-rule="evenodd" d="M291.284 232.956C291.284 236.114 290.627 238.986 289.315 241.57C288.002 244.155 286.156 246.206 283.777 247.724C281.397 249.241 278.628 250 275.47 250H260.333V243.786H275.47C277.48 243.786 279.182 243.314 280.577 242.37C282.013 241.386 283.12 240.073 283.9 238.432C284.679 236.791 285.069 234.966 285.069 232.956C285.069 230.946 284.679 229.141 283.9 227.541C283.12 225.941 282.013 224.669 280.577 223.726C279.182 222.741 277.48 222.249 275.47 222.249H257.441V250H251.164V216.034H275.47C278.628 216.034 281.397 216.793 283.777 218.311C286.156 219.829 288.002 221.859 289.315 224.403C290.627 226.946 291.284 229.797 291.284 232.956ZM242.293 250H236.202V216.157H242.293V250ZM194.007 231.54H227.85V225.387H194.007V231.54ZM191.051 250H182.744L166.499 233.694L157.146 240.463V250H150.993V216.157H157.146V233.386L181.329 216.157H190.743L171.237 230.248L191.051 250ZM142.207 241.57C143.519 238.986 144.176 236.135 144.176 233.017C144.176 229.899 143.519 227.069 142.207 224.526C140.935 221.982 139.13 219.952 136.792 218.434C134.453 216.916 131.725 216.157 128.608 216.157H117.901C114.783 216.157 112.035 216.916 109.656 218.434C107.317 219.952 105.492 221.982 104.179 224.526C102.908 227.069 102.272 229.899 102.272 233.017C102.272 236.135 102.908 238.986 104.179 241.57C105.492 244.114 107.317 246.165 109.656 247.724C112.035 249.241 114.783 250 117.901 250H128.608C131.725 250 134.453 249.241 136.792 247.724C139.13 246.165 140.935 244.114 142.207 241.57ZM136.915 227.602C137.653 229.243 138.022 231.048 138.022 233.017C138.022 234.986 137.653 236.791 136.915 238.432C136.176 240.073 135.089 241.386 133.653 242.37C132.259 243.355 130.577 243.847 128.608 243.847H117.901C115.932 243.847 114.23 243.355 112.794 242.37C111.399 241.386 110.312 240.073 109.533 238.432C108.794 236.791 108.425 234.986 108.425 233.017C108.425 231.048 108.794 229.243 109.533 227.602C110.312 225.961 111.399 224.669 112.794 223.726C114.23 222.741 115.932 222.249 117.901 222.249H128.608C130.577 222.249 132.259 222.741 133.653 223.726C135.089 224.669 136.176 225.961 136.915 227.602ZM97.4851 233.017C97.4851 236.135 96.8288 238.986 95.5161 241.57C94.2444 244.114 92.4394 246.165 90.1012 247.724C87.7629 249.241 85.035 250 81.9173 250H71.2106C68.0929 250 65.3444 249.241 62.9652 247.724C60.6269 246.165 58.8014 244.114 57.4887 241.57C56.2171 238.986 55.5812 236.135 55.5812 233.017C55.5812 229.899 56.2171 227.069 57.4887 224.526C58.8014 221.982 60.6269 219.952 62.9652 218.434C65.3444 216.916 68.0929 216.157 71.2106 216.157H81.9173C85.035 216.157 87.7629 216.916 90.1012 218.434C92.4394 219.952 94.2444 221.982 95.5161 224.526C96.8288 227.069 97.4851 229.899 97.4851 233.017ZM91.3318 233.017C91.3318 231.048 90.9626 229.243 90.2242 227.602C89.4858 225.961 88.3988 224.669 86.963 223.726C85.5683 222.741 83.8864 222.249 81.9173 222.249H71.2106C69.2415 222.249 67.5391 222.741 66.1034 223.726C64.7086 224.669 63.6215 225.961 62.8421 227.602C62.1037 229.243 61.7345 231.048 61.7345 233.017C61.7345 234.986 62.1037 236.791 62.8421 238.432C63.6215 240.073 64.7086 241.386 66.1034 242.37C67.5391 243.355 69.2415 243.847 71.2106 243.847H81.9173C83.8864 243.847 85.5683 243.355 86.963 242.37C88.3988 241.386 89.4858 240.073 90.2242 238.432C90.9626 236.791 91.3318 234.986 91.3318 233.017ZM20.5361 250H52.9024V243.847H26.6894V216.157H20.5361V250Z" fill="white"/>
<path fill-rule="evenodd" clip-rule="evenodd" d="M140.601 89.4758C145.223 80.3766 147.534 70.3385 147.534 59.3617C147.534 48.3848 145.223 38.419 140.601 29.4642C136.124 20.5094 129.769 13.36 121.536 8.01599C113.304 2.67199 103.7 0 92.723 0H55.0272C44.0506 0 34.3739 2.67199 25.9971 8.01599C17.7647 13.36 11.3376 20.5094 6.71592 29.4642C2.23864 38.419 0 48.3848 0 59.3617C0 70.3385 2.23864 80.3766 6.71592 89.4758C11.3376 98.4306 17.7647 105.652 25.9971 111.141C34.3739 116.485 44.0506 119.157 55.0272 119.157H92.723C103.7 119.157 113.304 116.485 121.536 111.141C129.769 105.652 136.124 98.4306 140.601 89.4758ZM121.97 40.2966C124.569 46.0739 125.869 52.4289 125.869 59.3617C125.869 66.2944 124.569 72.6494 121.97 78.4267C119.37 84.204 115.543 88.8259 110.488 92.2922C105.577 95.7586 99.6556 97.4918 92.723 97.4918H55.0272C48.0946 97.4918 42.1009 95.7586 37.0459 92.2922C32.1353 88.8259 28.308 84.204 25.5638 78.4267C22.9641 72.6494 21.6642 66.2944 21.6642 59.3617C21.6642 52.4289 22.9641 46.0739 25.5638 40.2966C28.308 34.5193 32.1353 29.9697 37.0459 26.6478C42.1009 23.1814 48.0946 21.4482 55.0272 21.4482H92.723C99.6556 21.4482 105.577 23.1814 110.488 26.6478C115.543 29.9697 119.37 34.5193 121.97 40.2966ZM311.923 59.3617C311.923 70.3385 309.613 80.3766 304.991 89.4758C300.514 98.4306 294.159 105.652 285.926 111.141C277.694 116.485 268.089 119.157 257.113 119.157H219.417C208.441 119.157 198.764 116.485 190.387 111.141C182.155 105.652 175.727 98.4306 171.106 89.4758C166.628 80.3766 164.39 70.3385 164.39 59.3617C164.39 48.3848 166.628 38.419 171.106 29.4642C175.727 20.5094 182.155 13.36 190.387 8.01599C198.764 2.67199 208.441 0 219.417 0H257.113C268.089 0 277.694 2.67199 285.926 8.01599C294.159 13.36 300.514 20.5094 304.991 29.4642C309.613 38.419 311.923 48.3848 311.923 59.3617ZM290.259 59.3617C290.259 52.4289 288.959 46.0739 286.36 40.2966C283.76 34.5193 279.933 29.9697 274.878 26.6478C269.967 23.1814 264.045 21.4482 257.113 21.4482H219.417C212.484 21.4482 206.491 23.1814 201.436 26.6478C196.525 29.9697 192.698 34.5193 189.954 40.2966C187.354 46.0739 186.054 52.4289 186.054 59.3617C186.054 66.2944 187.354 72.6494 189.954 78.4267C192.698 84.204 196.525 88.8259 201.436 92.2922C206.491 95.7586 212.484 97.4918 219.417 97.4918H257.113C264.045 97.4918 269.967 95.7586 274.878 92.2922C279.933 88.8259 283.76 84.204 286.36 78.4267C288.959 72.6494 290.259 66.2944 290.259 59.3617ZM201.413 55.4725C201.413 42.4191 211.995 31.8372 225.048 31.8372H250.955C264.008 31.8372 274.59 42.4191 274.59 55.4725V64.1085C274.59 77.1619 264.008 87.7438 250.955 87.7438H225.048C211.995 87.7438 201.413 77.1619 201.413 64.1085V55.4725ZM37.334 55.4725C37.334 42.4191 47.9156 31.8372 60.9686 31.8372H86.8759C99.9289 31.8372 110.511 42.4191 110.511 55.4725V64.1085C110.511 77.1619 99.9289 87.7438 86.8759 87.7438H60.9686C47.9156 87.7438 37.334 77.1619 37.334 64.1085V55.4725ZM90.9245 142.573C86.313 140.588 80.9658 142.718 78.9811 147.329C76.9965 151.941 79.1259 157.288 83.7374 159.273C109.053 170.169 174.028 185.321 234.551 159.273C239.162 157.288 241.291 151.941 239.307 147.329C237.322 142.718 231.975 140.588 227.363 142.573C172.985 165.977 113.484 152.282 90.9245 142.573Z" fill="white"/>
</svg>
