<svg width="253" height="65" viewBox="0 0 253 65" fill="none" xmlns="http://www.w3.org/2000/svg">
<path fill-rule="evenodd" clip-rule="evenodd" d="M63.5714 18.5231C63.9797 18.764 64.1951 19.2069 64.1654 19.6497C64.1948 20.0895 63.9826 20.5297 63.5786 20.7718L52.8332 27.2115C52.8155 27.2204 52.7979 27.2297 52.7805 27.2394L32.3051 38.6528L11.3814 27.1376L11.3719 27.1324L0.596734 20.7761C0.188434 20.5353 -0.0269535 20.0924 0.00270367 19.6495C-0.0266844 19.2098 0.185502 18.7695 0.589503 18.5274L31.2169 0.172463C31.598 -0.0559359 32.0735 -0.0575861 32.4562 0.168162L63.5714 18.5231ZM33.2169 41.1464L52.2717 30.5249V37.0299L63.5714 43.6956C63.9797 43.9365 64.1951 44.3793 64.1654 44.8222C64.1948 45.262 63.9826 45.7022 63.5786 45.9443L32.9512 64.2993C32.5701 64.5277 32.0946 64.5293 31.7119 64.3036L0.596734 45.9486C0.188434 45.7078 -0.0269535 45.2649 0.00270367 44.822C-0.0266844 44.3823 0.185502 43.942 0.589503 43.6999L11.8965 36.9237L11.8965 30.414L31.4069 41.1513C31.9708 41.4616 32.6547 41.4598 33.2169 41.1464ZM11.8965 24.6259L3.44777 19.642L31.8451 2.6236L60.7203 19.6572L52.2717 24.7205V19.6332H52.2708L52.2715 19.6142L52.2717 19.6V19.5998V19.5932C52.2716 19.5821 52.2713 19.5709 52.2708 19.5598C52.2589 19.3108 52.1262 19.0725 51.8962 18.9364L32.3182 7.3498C32.0774 7.20729 31.7782 7.20834 31.5384 7.35251L12.2674 18.9391C12.04 19.0758 11.9092 19.3126 11.8973 19.5598C11.8962 19.5842 11.8962 19.6087 11.8973 19.6332H11.8965L11.8965 24.6259ZM11.8965 43.888L11.8965 39.7512L3.44777 44.8145L32.323 61.8482L60.7203 44.8297L52.2717 39.8458V43.7789L52.2717 43.7846L52.2717 43.7884V43.8832V43.888C52.2709 44.1474 52.1387 44.4 51.9007 44.543L32.6297 56.1296C32.3899 56.2738 32.0907 56.2748 31.8499 56.1323L12.2719 44.5457C12.0314 44.4034 11.8973 44.1492 11.8965 43.888ZM79.6533 48.5382V15.9915H81.9752C84.2352 15.9915 86.6809 16.4254 89.3123 17.2933C91.9747 18.1612 94.6372 19.3856 97.2996 20.9664C99.962 22.5473 102.47 24.4381 104.822 26.6389C107.206 28.8087 109.249 31.2264 110.952 33.8921V15.9915H115.596V48.5382H110.952C110.952 45.6864 110.364 42.9587 109.188 40.355C108.042 37.7203 106.51 35.3025 104.59 33.1017C102.671 30.8699 100.535 28.9016 98.1819 27.1968C95.86 25.461 93.4917 24.0506 91.077 22.9657C88.6622 21.8499 86.4022 21.1369 84.2971 20.827V48.5382H79.6533ZM152.351 31.1024C152.351 32.5903 151.98 33.9541 151.237 35.194C150.525 36.4339 149.55 37.4258 148.311 38.1697C147.104 38.8826 145.742 39.2391 144.225 39.2391H126.439C127.089 40.603 128.049 41.7188 129.318 42.5868C130.618 43.4547 132.074 43.8886 133.683 43.8886H148.868V48.5382H133.683C131.919 48.5382 130.262 48.2127 128.715 47.5618C127.198 46.8798 125.851 45.9499 124.674 44.772C123.529 43.5942 122.631 42.2458 121.981 40.7269C121.331 39.1771 121.006 37.5188 121.006 35.752C121.006 33.9851 121.331 32.3423 121.981 30.8235C122.631 29.2736 123.529 27.9097 124.674 26.7319C125.851 25.554 127.198 24.6396 128.715 23.9886C130.262 23.3067 131.919 22.9657 133.683 22.9657H144.225C145.742 22.9657 147.104 23.3377 148.311 24.0816C149.55 24.7946 150.525 25.771 151.237 27.0108C151.98 28.2197 152.351 29.5836 152.351 31.1024ZM144.225 34.5896C145.184 34.5896 146.005 34.2486 146.686 33.5667C147.367 32.8847 147.707 32.0633 147.707 31.1024C147.707 30.1415 147.367 29.3201 146.686 28.6382C146.005 27.9562 145.184 27.6153 144.225 27.6153H133.683C132.321 27.6153 131.067 27.9252 129.922 28.5452C128.807 29.1651 127.879 30.002 127.136 31.0559C126.393 32.1098 125.928 33.2877 125.743 34.5896H144.225ZM179.683 48.5382H186.323L159.993 22.9657H153.353L166.541 35.7984L153.353 48.5382H159.993L169.745 38.9136L179.683 48.5382ZM175.271 33.7527L186.323 22.9657H179.683L171.928 30.777L175.271 33.7527ZM219.648 48.5382H202.234C200.47 48.5382 198.813 48.2127 197.265 47.5618C195.748 46.8798 194.402 45.9499 193.225 44.772C192.08 43.5942 191.182 42.2458 190.532 40.7269C189.882 39.1771 189.557 37.5188 189.557 35.752V22.9657H194.201V35.752C194.201 37.2398 194.557 38.6037 195.269 39.8435C196.012 41.0524 196.987 42.0288 198.194 42.7727C199.402 43.4857 200.748 43.8576 202.234 43.8886H215.005V22.9657H219.648V48.5382ZM251.885 44.5396C252.628 43.2997 253 41.9203 253 40.4015C253 38.8826 252.628 37.5188 251.885 36.3099C251.173 35.07 250.198 34.0936 248.96 33.3807C247.752 32.6368 246.39 32.2648 244.873 32.2648H232.103C231.453 32.2648 230.896 32.0478 230.431 31.6139C229.998 31.1489 229.781 30.591 229.781 29.94C229.781 29.2891 229.998 28.7467 230.431 28.3127C230.896 27.8478 231.453 27.6153 232.103 27.6153H250.678V22.9657H232.103C230.834 22.9657 229.657 23.2757 228.574 23.8957C227.521 24.5156 226.685 25.3525 226.066 26.4064C225.447 27.4603 225.137 28.6382 225.137 29.94C225.137 31.2109 225.447 32.3888 226.066 33.4737C226.685 34.5276 227.521 35.3645 228.574 35.9844C229.657 36.6044 230.834 36.9143 232.103 36.9143H244.873C245.833 36.9143 246.653 37.2553 247.334 37.9372C248.016 38.6192 248.356 39.4406 248.356 40.4015C248.356 41.3624 248.016 42.1838 247.334 42.8657C246.653 43.5477 245.833 43.8886 244.873 43.8886H225.137V48.5382H244.873C246.39 48.5382 247.752 48.1817 248.96 47.4688C250.198 46.7248 251.173 45.7484 251.885 44.5396Z" fill="#FEFFEA"/>
</svg>
